Coordinates
version=1
nRows=16
nColumns=33
inDegrees=yes

Units are S.I. units (second, meters, Newtons, ...)
Angles are in degrees.

endheader
time	ground_thorax_rot_x	ground_thorax_rot_y	ground_thorax_rot_z	ground_thorax_tx	ground_thorax_ty	ground_thorax_tz	clav_prot_r	clav_elev_r	scapula_abduction_r	scapula_elevation_r	scapula_upward_rot_r	scapula_winging_r	shoulder_elv_r	plane_of_elev_r	axial_rot_r	elbow_flexion_r	pro_sup_r	wrist_flex_r	wrist_dev_r	clav_prot_l	clav_elev_l	scapula_abduction_l	scapula_elevation_l	scapula_upward_rot_l	scapula_winging_l	shoulder_elv_l	plane_of_elev_l	axial_rot_l	elbow_flexion_l	pro_sup_l	wrist_flex_l	wrist_dev_l
      6.28000000	     31.13065132	     24.10650502	     31.67647060	   -151.97088820	    805.70385305	     -7.13516037	     12.54545952	     39.46555226	     37.35829677	     45.00000000	    -31.38658028	  -1886.90806190	  -2276.89583928	    147.08116588	   -130.34279018	   1455.39012233	     42.20902953	     18.89978322	      8.01496316	      8.18474203	    -45.00000000	    -38.50232469	     45.00000000	    -45.00000000	   2253.57617218	  -4774.48420715	    135.27104740	   -179.99999979	    369.44967851	     36.26930551	     10.40083151	    -22.69962513
      6.29000000	     31.15674840	     24.09830673	     31.46347984	   -154.68427472	    806.87889328	     -7.08168848	     12.68984941	     39.58794840	     37.21039531	     45.00000000	    -31.88349758	  -1886.90730970	  -2276.34620445	    146.93028668	   -130.79648385	   1455.70908331	     42.24927680	     18.92048987	      7.79870987	      8.26082761	    -45.00000000	    -38.78285786	     45.00000000	    -45.00000000	   2253.67197449	  -4774.30478113	    135.38920065	   -179.99999979	    369.66955194	     36.14545716	     10.36338539	    -22.76866352
      6.30000000	     31.39793877	     23.76323496	     30.93914217	   -157.42231110	    808.07206463	     -7.03347870	     12.60025958	     39.60443789	     37.31445040	     45.00000000	    -31.62511269	  -1887.07470660	  -2276.19453610	    146.89674615	   -131.06728307	   1455.81519146	     42.44730846	     18.94995603	      7.71219443	      8.21565902	    -45.00000000	    -38.72206774	     45.00000000	    -45.00000000	   2253.76968104	  -4774.02792345	    135.30611319	   -179.99999979	    369.79642511	     36.05109150	     10.17822806	    -22.79880535
      6.31000000	     31.65725775	     23.28771776	     30.37116022	   -160.17973930	    809.27558811	     -6.98899601	     12.44416175	     39.55588428	     37.53255084	     45.00000000	    -31.12133530	  -1887.29485123	  -2276.23095914	    146.91981790	   -131.24195736	   1455.79793696	     42.74905021	     18.95140931	      7.64689226	      8.18308151	    -45.00000000	    -38.55486921	     45.00000000	    -45.00000000	   2253.93193672	  -4773.72877607	    135.12887818	   -179.99999979	    369.84688173	     35.98637870	      9.98500774	    -22.82603953
      6.32000000	     31.76151300	     23.18117071	     30.09169929	   -162.95923397	    810.48530177	     -6.94648808	     12.49446209	     39.60316614	     37.47351478	     45.00000000	    -31.28276826	  -1887.38934035	  -2275.85473125	    146.83752893	   -131.48676154	   1456.05137544	     43.13490892	     18.93351158	      7.42281220	      8.23100003	    -45.00000000	    -38.62151770	     45.00000000	    -45.00000000	   2254.07660244	  -4773.55600470	    135.17884246	   -179.99999979	    370.06292984	     35.92479352	      9.86296463	    -22.88167614
      6.33000000	     31.93411730	     22.95286546	     29.66439579	   -165.75235409	    811.69317258	     -6.90509046	     12.50901207	     39.57590286	     37.48722442	     45.00000000	    -31.34984518	  -1887.49369901	  -2275.54251735	    146.72291385	   -131.84898352	   1456.21617127	     43.70807189	     18.89178614	      7.22376330	      8.28292416	    -45.00000000	    -38.74448112	     45.00000000	    -45.00000000	   2254.26517790	  -4773.39382746	    135.13604700	   -179.99999979	    370.24513273	     35.89503659	      9.74246653	    -22.94900234
      6.34000000	     32.13906914	     22.60837057	     29.20502220	   -168.55485634	    812.89352093	     -6.86440537	     12.41782115	     39.60716474	     37.58044798	     45.00000000	    -31.09126939	  -1887.63588916	  -2275.39704988	    146.71651231	   -132.07144785	   1456.33571359	     44.36671497	     18.89095968	      7.09562132	      8.24864703	    -45.00000000	    -38.63727860	     45.00000000	    -45.00000000	   2254.39161357	  -4773.16146159	    135.10458312	   -179.99999979	    370.34464249	     35.88462660	      9.52755243	    -22.97902818
      6.35000000	     32.44142922	     22.09715310	     28.56105535	   -171.35868144	    814.08022300	     -6.82511938	     12.20112562	     39.49598242	     37.84337906	     45.00000000	    -30.47729298	  -1887.90379343	  -2275.55963646	    146.79990040	   -132.32380022	   1456.22702750	     45.01785961	     18.82873613	      6.99349354	      8.23571013	    -45.00000000	    -38.41447456	     45.00000000	    -45.00000000	   2254.66923125	  -4772.89985338	    134.77525594	   -179.99999979	    370.40021879	     35.89821887	      9.31243492	    -23.02998387
      6.36000000	     32.45161883	     22.07592277	     28.36002065	   -174.16463008	    815.25209206	     -6.78755925	     12.35263975	     39.56278061	     37.66712280	     45.00000000	    -31.02471312	  -1887.88616225	  -2274.98649893	    146.62770601	   -132.44137723	   1456.70209854	     45.83058898	     18.82667533	      6.72160289	      8.32918188	    -45.00000000	    -38.64494352	     45.00000000	    -45.00000000	   2254.74033656	  -4772.76035914	    135.00692914	   -179.99999979	    370.58360706	     35.93533167	      9.19683498	    -23.07312225
      6.37000000	     32.66581899	     21.68867323	     27.83229771	   -176.96209514	    816.40559284	     -6.75232730	     12.23052618	     39.60498654	     37.75725674	     45.00000000	    -30.72359832	  -1888.02963020	  -2274.91712520	    146.64932711	   -132.64607034	   1456.84091638	     46.69399458	     18.83118195	      6.59904666	      8.27339379	    -45.00000000	    -38.56017166	     45.00000000	    -45.00000000	   2254.86900213	  -4772.50798795	    134.95016076	   -179.99999979	    370.65109276	     35.98735876	      8.95970083	    -23.10166912
      6.38000000	     32.94431637	     21.23684522	     27.18630465	   -179.74790763	    817.54112622	     -6.71889554	     12.07071645	     39.49316666	     37.95291688	     45.00000000	    -30.25928119	  -1888.26430356	  -2275.01904494	    146.67867977	   -132.87522625	   1456.73632946	     47.52682583	     18.69584104	      6.43128502	      8.27935184	    -45.00000000	    -38.45469199	     45.00000000	    -45.00000000	   2255.16216209	  -4772.32263993	    134.65664915	   -179.99999979	    370.70802873	     36.05719359	      8.78629780	    -23.16223862
      6.39000000	     33.11520692	     20.94591884	     26.70457893	   -182.52182991	    818.66097101	     -6.68702717	     12.04296070	     39.48162761	     37.94400011	     45.00000000	    -30.18796824	  -1888.42792523	  -2274.82071562	    146.58889507	   -132.88441641	   1456.95440540	     48.35146529	     18.63289341	      6.22869974	      8.25324074	    -45.00000000	    -38.53345308	     45.00000000	    -45.00000000	   2255.33791503	  -4772.16162110	    134.63651270	   -179.99999979	    370.84901789	     36.11692625	      8.61550149	    -23.20915024
      6.40000000	     33.08976371	     20.92659128	     26.63044886	   -185.28065953	    819.76623752	     -6.65639514	     12.18822787	     39.51257831	     37.79749116	     45.00000000	    -30.79525382	  -1888.36326491	  -2274.28358088	    146.47779332	   -132.97374021	   1457.37272942	     49.51384180	     18.63059422	      6.01918377	      8.43426394	    -45.00000000	    -38.62532781	     45.00000000	    -45.00000000	   2255.42623575	  -4772.04986915	    134.92411249	   -179.99999979	    370.95995742	     36.20554003	      8.45935911	    -23.21709975
      6.41000000	     33.27951364	     20.56910283	     26.09580860	   -188.02660439	    820.86033934	     -6.62774779	     12.07065167	     39.50830991	     37.85063852	     45.00000000	    -30.62693255	  -1888.46456116	  -2274.15904427	    146.48528607	   -133.15851128	   1457.55844984	     50.69026853	     18.62376221	      5.88968120	      8.38796886	    -45.00000000	    -38.56028452	     45.00000000	    -45.00000000	   2255.55933542	  -4771.84627062	    134.87482345	   -179.99999979	    371.01933224	     36.29604074	      8.23823516	    -23.24221122
      6.42000000	     33.41603217	     20.30736103	     25.68177774	   -190.75903796	    821.94466644	     -6.60228446	     12.04523644	     39.47986382	     37.86436900	     45.00000000	    -30.62937666	  -1888.58154859	  -2273.97767375	    146.45990970	   -133.20310603	   1457.76978882	     51.97353159	     18.53646677	      5.69165490	      8.42738807	    -45.00000000	    -38.56199606	     45.00000000	    -45.00000000	   2255.74658237	  -4771.70364619	    134.87175997	   -179.99999979	    371.10910364	     36.39153292	      8.07240189	    -23.27617970
      6.43000000	     33.57962163	     19.95057185	     25.20849734	   -193.47851013	    823.02104596	     -6.58170886	     11.93982545	     39.45876783	     37.91081751	     45.00000000	    -30.44556170	  -1888.71633091	  -2273.90903433	    146.48111508	   -133.30684101	   1457.94384278	     53.26806956	     18.45707212	      5.51631289	      8.42340236	    -45.00000000	    -38.48522909	     45.00000000	    -45.00000000	   2255.95403272	  -4771.51182870	    134.81012753	   -179.99999979	    371.16409965	     36.49214062	      7.88504673	    -23.30680402
